<?xml version="1.0" encoding="utf-8"?>
<!-- Generator: Adobe Illustrator 22.1.0, SVG Export Plug-In . SVG Version: 6.00 Build 0)  -->
<svg version="1.1" id="Layer_1" xmlns="http://www.w3.org/2000/svg" xmlns:xlink="http://www.w3.org/1999/xlink" x="0px" y="0px"
	 viewBox="0 0 800 800" style="enable-background:new 0 0 800 800;" xml:space="preserve">
<style type="text/css">
	.st0{fill:#009fda;}
	.st1{fill:#FFFFFF;}
</style>
<g>
	<polygon class="st0" points="800,800 0,800 0,0 800,0 800,800 	"/>
	<polygon class="st1" points="125.3,315.9 215,315.9 215,364 69.1,364 69.1,104.1 125.3,104.1 125.3,315.9 	"/>
	<path class="st1" d="M474.5,364H431c-4.9,0-8.8-1.2-11.8-3.7c-3-2.4-5.3-5.6-6.8-9.4l-14.3-45.3H306L291.7,351
		c-1.2,3.3-3.4,6.3-6.6,9c-3.2,2.7-7.1,4-11.7,4h-43.9l93.7-260h57.5L474.5,364L474.5,364z M319,264.7h66.1l-22.3-71.2
		c-1.7-4.5-3.4-9.8-5.3-16c-1.9-6.1-3.8-12.8-5.7-19.9c-1.8,7.3-3.6,14-5.4,20.2c-1.8,6.2-3.6,11.5-5.2,16.1L319,264.7L319,264.7z"
		/>
	<path class="st1" d="M602.1,316.4c7.5,0,14.3-1.3,20.2-4c5.9-2.7,10.9-6.5,15-11.5c4.1-5,7.2-11.1,9.4-18.3
		c2.2-7.2,3.2-15.4,3.2-24.5v-154h56.2v154c0,15.9-2.4,30.6-7.2,43.9c-4.8,13.3-11.7,24.8-20.7,34.4c-9,9.6-19.9,17.1-32.7,22.5
		c-12.9,5.4-27.3,8-43.4,8c-16.2,0-30.7-2.7-43.5-8c-12.8-5.4-23.8-12.9-32.7-22.5c-9-9.6-15.8-21.1-20.6-34.4
		c-4.8-13.3-7.1-28-7.1-43.9v-154h56.2v153.8c0,9.2,1.1,17.3,3.2,24.5c2.2,7.2,5.3,13.3,9.4,18.4c4.1,5.1,9.1,8.9,15,11.6
		C587.9,315.1,594.6,316.4,602.1,316.4L602.1,316.4z"/>
	<path class="st1" d="M125.3,599.8v96.2H69.1V436h78.8c17.5,0,32.4,1.9,44.8,5.8c12.4,3.9,22.4,9.2,30.2,16.1
		c7.8,6.9,13.5,15,17,24.4c3.5,9.4,5.3,19.6,5.3,30.7c0,8.5-1.1,16.4-3.2,23.9c-2.1,7.5-5.2,14.4-9.4,20.8c-4.1,6.4-9.2,12-15.3,17
		c-6,5-13,9.1-20.9,12.3c3.8,2,7.3,4.5,10.5,7.6c3.2,3,6.1,6.6,8.6,10.8l51.5,90.5h-50.9c-9.4,0-16.2-3.8-20.3-11.4L155.8,609
		c-1.9-3.2-4-5.6-6.3-7.1c-2.3-1.5-5.6-2.2-10-2.2H125.3L125.3,599.8z M125.3,558.2h22.6c7.6,0,14.2-1,19.5-3.1
		c5.4-2.1,9.8-5,13.2-8.7c3.4-3.7,5.9-8,7.5-12.9c1.5-4.9,2.3-10.3,2.3-16c0-11.4-3.5-20.3-10.4-26.8c-6.9-6.4-17.6-9.6-32.2-9.6
		h-22.6V558.2L125.3,558.2z"/>
	<polygon class="st1" points="461.3,436 461.3,482.4 361.9,482.4 361.9,543 438.1,543 438.1,587.6 361.9,587.6 361.9,649.5 
		461.3,649.5 461.3,695.9 305.4,695.9 305.4,436 461.3,436 	"/>
	<path class="st1" d="M730.9,695.9h-43.5c-4.9,0-8.8-1.2-11.8-3.7c-3-2.4-5.3-5.6-6.8-9.4l-14.3-45.3h-92.1l-14.3,45.3
		c-1.2,3.3-3.4,6.3-6.6,9c-3.2,2.7-7.1,4-11.7,4H486l93.7-260h57.5L730.9,695.9L730.9,695.9z M575.4,596.6h66.1l-22.3-71.2
		c-1.7-4.5-3.4-9.8-5.3-16c-1.9-6.1-3.8-12.8-5.7-19.9c-1.8,7.3-3.6,14-5.4,20.2c-1.8,6.2-3.6,11.5-5.2,16.1L575.4,596.6
		L575.4,596.6z"/>
</g>
</svg>
